# Blender v2.80 (sub 75) OBJ File: 'Chair0001.blend'
# www.blender.org
mtllib Door.mtl
o Door_Cube.002
v -1.074991 -2.388870 0.059722
v -1.074991 2.388870 0.059722
v -1.074991 -2.388870 -0.059722
v -1.074991 2.388870 -0.059722
v 1.074991 -2.388870 0.059722
v 1.074991 2.388870 0.059722
v 1.074991 -2.388870 -0.059722
v 1.074991 2.388870 -0.059722
v -0.743083 0.060483 -0.453329
v -0.743083 -0.060483 -0.453329
v -0.743083 0.060483 -0.332363
v -0.743083 -0.060483 -0.332363
v -0.864050 0.060483 -0.453329
v -0.864050 -0.060483 -0.453329
v -0.864050 0.060483 -0.332363
v -0.864050 -0.060483 -0.332363
v -0.743083 -0.060483 -0.166530
v -0.743083 0.060483 -0.166530
v -0.864050 0.060483 -0.166530
v -0.864050 -0.060483 -0.166530
v -0.635302 -0.168265 -0.062151
v -0.635302 0.168265 -0.062151
v -0.971831 0.168265 -0.062151
v -0.971831 -0.168265 -0.062151
v -0.329874 0.060483 -0.332363
v -0.329874 0.060483 -0.453329
v -0.329874 -0.060483 -0.453329
v -0.329874 -0.060483 -0.332363
v -0.743083 -0.060483 0.398803
v -0.743083 0.060483 0.398803
v -0.743083 -0.060483 0.277837
v -0.743083 0.060483 0.277837
v -0.864050 -0.060483 0.398803
v -0.864050 0.060483 0.398803
v -0.864050 -0.060483 0.277837
v -0.864050 0.060483 0.277837
v -0.743083 0.060483 0.112004
v -0.743083 -0.060483 0.112004
v -0.864050 -0.060483 0.112004
v -0.864050 0.060483 0.112004
v -0.635302 0.168265 0.056869
v -0.635302 -0.168265 0.056869
v -0.971831 -0.168265 0.056869
v -0.971831 0.168265 0.056869
v -0.329874 -0.060483 0.277837
v -0.329874 -0.060483 0.398803
v -0.329874 0.060483 0.398803
v -0.329874 0.060483 0.277837
vt 0.375000 0.000000
vt 0.625000 0.000000
vt 0.625000 0.250000
vt 0.375000 0.250000
vt 0.625000 0.500000
vt 0.375000 0.500000
vt 0.625000 0.750000
vt 0.375000 0.750000
vt 0.625000 1.000000
vt 0.375000 1.000000
vt 0.125000 0.500000
vt 0.125000 0.750000
vt 0.875000 0.500000
vt 0.875000 0.750000
vt 0.125000 0.500000
vt 0.125000 0.750000
vt 0.125000 0.750000
vt 0.125000 0.500000
vt 0.875000 0.500000
vt 0.625000 0.500000
vt 0.625000 0.500000
vt 0.875000 0.500000
vt 0.375000 0.500000
vt 0.625000 0.750000
vt 0.375000 0.750000
vt 0.625000 1.000000
vt 0.375000 1.000000
vt 0.875000 0.750000
vt 0.625000 0.500000
vt 0.875000 0.500000
vt 0.375000 0.250000
vt 0.625000 0.250000
vt 0.625000 0.250000
vt 0.375000 0.250000
vt 0.375000 0.500000
vt 0.125000 0.500000
vt 0.375000 0.250000
vt 0.625000 0.250000
vt 0.375000 0.500000
vt 0.125000 0.500000
vt 0.375000 0.000000
vt 0.625000 0.000000
vt 0.625000 0.250000
vt 0.375000 0.250000
vt 0.625000 1.000000
vt 0.375000 1.000000
vt 0.875000 0.500000
vt 0.875000 0.750000
vt 0.125000 0.500000
vt 0.125000 0.750000
vt 0.125000 0.750000
vt 0.125000 0.500000
vt 0.875000 0.500000
vt 0.625000 0.500000
vt 0.625000 0.500000
vt 0.875000 0.500000
vt 0.375000 0.500000
vt 0.625000 0.750000
vt 0.375000 0.750000
vt 0.625000 1.000000
vt 0.375000 1.000000
vt 0.875000 0.750000
vt 0.625000 0.500000
vt 0.875000 0.500000
vt 0.375000 0.250000
vt 0.625000 0.250000
vt 0.625000 0.250000
vt 0.375000 0.250000
vt 0.375000 0.500000
vt 0.125000 0.500000
vt 0.375000 0.250000
vt 0.625000 0.250000
vt 0.375000 0.500000
vt 0.125000 0.500000
vt 0.375000 0.000000
vt 0.625000 0.000000
vt 0.625000 0.250000
vt 0.375000 0.250000
vt 0.625000 1.000000
vt 0.375000 1.000000
vt 0.875000 0.500000
vt 0.875000 0.750000
vn -1.0000 0.0000 0.0000
vn 0.0000 0.0000 -1.0000
vn 1.0000 0.0000 0.0000
vn 0.0000 0.0000 1.0000
vn 0.0000 -1.0000 0.0000
vn 0.0000 1.0000 0.0000
vn 0.0000 0.6957 0.7184
vn -0.6957 0.0000 0.7184
vn 0.6957 0.0000 0.7184
vn 0.0000 -0.6957 0.7184
vn -0.0000 -0.4554 -0.8903
vn -0.4554 0.0000 -0.8903
vn 0.4554 0.0000 -0.8903
vn -0.0000 0.4554 -0.8903
usemtl Material.010
s off
f 1/1/1 2/2/1 4/3/1 3/4/1
f 3/4/2 4/3/2 8/5/2 7/6/2
f 7/6/3 8/5/3 6/7/3 5/8/3
f 5/8/4 6/7/4 2/9/4 1/10/4
f 3/11/5 7/6/5 5/8/5 1/12/5
f 8/5/6 4/13/6 2/14/6 6/7/6
usemtl Material.011
f 11/15/5 9/16/5 26/17/5 25/18/5
f 12/19/6 16/20/6 20/21/6 17/22/6
f 15/23/3 16/20/3 14/24/3 13/25/3
f 13/25/4 14/24/4 10/26/4 9/27/4
f 11/15/5 15/23/5 13/25/5 9/16/5
f 16/20/6 12/19/6 10/28/6 14/24/6
f 17/22/7 20/21/7 24/29/7 21/30/7
f 11/31/1 12/32/1 17/33/1 18/34/1
f 16/20/3 15/23/3 19/35/3 20/21/3
f 15/23/5 11/15/5 18/36/5 19/35/5
f 22/37/2 21/38/2 24/29/2 23/39/2
f 18/34/8 17/33/8 21/38/8 22/37/8
f 20/21/9 19/35/9 23/39/9 24/29/9
f 19/35/10 18/36/10 22/40/10 23/39/10
f 26/41/1 27/42/1 28/43/1 25/44/1
f 12/32/2 11/31/2 25/44/2 28/43/2
f 9/27/4 10/26/4 27/45/4 26/46/4
f 10/28/6 12/19/6 28/47/6 27/48/6
usemtl Material.012
f 31/49/6 29/50/6 46/51/6 45/52/6
f 32/53/5 36/54/5 40/55/5 37/56/5
f 35/57/3 36/54/3 34/58/3 33/59/3
f 33/59/2 34/58/2 30/60/2 29/61/2
f 31/49/6 35/57/6 33/59/6 29/50/6
f 36/54/5 32/53/5 30/62/5 34/58/5
f 37/56/11 40/55/11 44/63/11 41/64/11
f 31/65/1 32/66/1 37/67/1 38/68/1
f 36/54/3 35/57/3 39/69/3 40/55/3
f 35/57/6 31/49/6 38/70/6 39/69/6
f 42/71/4 41/72/4 44/63/4 43/73/4
f 38/68/12 37/67/12 41/72/12 42/71/12
f 40/55/13 39/69/13 43/73/13 44/63/13
f 39/69/14 38/70/14 42/74/14 43/73/14
f 46/75/1 47/76/1 48/77/1 45/78/1
f 32/66/4 31/65/4 45/78/4 48/77/4
f 29/61/2 30/60/2 47/79/2 46/80/2
f 30/62/5 32/53/5 48/81/5 47/82/5
